<svg width="512" height="512" viewBox="0 0 512 512" fill="none" xmlns="http://www.w3.org/2000/svg">
<g clip-path="url(#clip0_36_72)">
<path fill-rule="evenodd" clip-rule="evenodd" d="M256 15.7539C114.56 15.7539 0 130.314 0 271.754C0 385.034 73.28 480.714 175.04 514.634C187.84 516.874 192.64 509.194 192.64 502.474C192.64 496.394 192.32 476.234 192.32 454.794C128 466.634 111.36 439.114 106.24 424.714C103.36 417.354 90.88 394.634 80 388.554C71.04 383.754 58.24 371.914 79.68 371.594C99.84 371.274 114.24 390.154 119.04 397.834C142.08 436.554 178.88 425.674 193.6 418.954C195.84 402.314 202.56 391.114 209.92 384.714C152.96 378.314 93.44 356.234 93.44 258.314C93.44 230.474 103.36 207.434 119.68 189.514C117.12 183.114 108.16 156.874 122.24 121.674C122.24 121.674 143.68 114.954 192.64 147.914C213.12 142.154 234.88 139.274 256.64 139.274C278.4 139.274 300.16 142.154 320.64 147.914C369.6 114.634 391.04 121.674 391.04 121.674C405.12 156.874 396.16 183.114 393.6 189.514C409.92 207.434 419.84 230.154 419.84 258.314C419.84 356.554 360 378.314 303.04 384.714C312.32 392.714 320.32 408.074 320.32 432.074C320.32 466.314 320 493.834 320 502.474C320 509.194 324.8 517.194 337.6 514.634C388.42 497.476 432.58 464.814 463.865 421.244C495.15 377.675 511.985 325.392 512 271.754C512 130.314 397.44 15.7539 256 15.7539Z" fill="white"/>
</g>
<defs>
<clipPath id="clip0_36_72">
<rect width="512" height="512" fill="white"/>
</clipPath>
</defs>
</svg>
